<svg xmlns="http://www.w3.org/2000/svg" width="800" height="500" viewBox="0 0 800 500" role="img" aria-label="Capa do projeto MediaFlow">
  <defs>
    <linearGradient id="mbg" x1="0%" y1="0%" x2="100%" y2="100%">
      <stop offset="0%" stop-color="#0a0612"/>
      <stop offset="50%" stop-color="#12081c"/>
      <stop offset="100%" stop-color="#1a0c28"/>
    </linearGradient>
    <linearGradient id="mline" x1="0%" y1="0%" x2="100%" y2="0%">
      <stop offset="0%" stop-color="#e879f9"/>
      <stop offset="50%" stop-color="#fcd34d"/>
      <stop offset="100%" stop-color="#22d3ee"/>
    </linearGradient>
    <radialGradient id="spot" cx="30%" cy="25%" r="60%">
      <stop offset="0%" stop-color="#e879f9" stop-opacity="0.45"/>
      <stop offset="100%" stop-color="#0a0612" stop-opacity="0"/>
    </radialGradient>
  </defs>
  <rect width="800" height="500" fill="url(#mbg)"/>
  <rect width="800" height="500" fill="url(#spot)"/>
  <g transform="translate(72 120)">
    <rect x="0" y="0" width="112" height="168" rx="12" fill="rgba(255,255,255,0.06)" stroke="rgba(255,255,255,0.1)"/>
    <rect x="8" y="10" width="96" height="72" rx="8" fill="rgba(34,211,238,0.2)"/>
    <rect x="8" y="92" width="96" height="10" rx="4" fill="rgba(255,255,255,0.08)"/>
    <rect x="8" y="110" width="64" height="8" rx="3" fill="rgba(255,255,255,0.05)"/>
    <rect x="128" y="0" width="112" height="168" rx="12" fill="rgba(255,255,255,0.06)" stroke="rgba(255,255,255,0.1)"/>
    <rect x="136" y="10" width="96" height="72" rx="8" fill="rgba(232,121,249,0.22)"/>
    <rect x="136" y="92" width="96" height="10" rx="4" fill="rgba(255,255,255,0.08)"/>
    <rect x="136" y="110" width="72" height="8" rx="3" fill="rgba(255,255,255,0.05)"/>
    <rect x="256" y="0" width="112" height="168" rx="12" fill="rgba(255,255,255,0.06)" stroke="rgba(255,255,255,0.1)"/>
    <rect x="264" y="10" width="96" height="72" rx="8" fill="rgba(252,211,77,0.18)"/>
    <rect x="264" y="92" width="96" height="10" rx="4" fill="rgba(255,255,255,0.08)"/>
    <rect x="264" y="110" width="56" height="8" rx="3" fill="rgba(255,255,255,0.05)"/>
    <rect x="384" y="0" width="112" height="168" rx="12" fill="rgba(255,255,255,0.06)" stroke="rgba(255,255,255,0.1)"/>
    <rect x="392" y="10" width="96" height="72" rx="8" fill="rgba(255,255,255,0.1)"/>
    <rect x="392" y="92" width="96" height="10" rx="4" fill="rgba(255,255,255,0.08)"/>
    <rect x="392" y="110" width="80" height="8" rx="3" fill="rgba(255,255,255,0.05)"/>
  </g>
  <circle cx="620" cy="200" r="52" fill="rgba(0,0,0,0.35)" stroke="url(#mline)" stroke-width="3"/>
  <path d="M602 188v44l38-22z" fill="url(#mline)"/>
  <text x="72" y="64" fill="#f4f4f8" font-family="system-ui,Segoe UI,sans-serif" font-size="38" font-weight="800" letter-spacing="-0.03em">MediaFlow</text>
  <text x="72" y="96" fill="#8b8fa3" font-family="system-ui,Segoe UI,sans-serif" font-size="14" font-weight="600" letter-spacing="0.12em">PORTAL DE ENTRETENIMENTO</text>
  <text x="72" y="418" fill="#b4b8c9" font-family="system-ui,Segoe UI,sans-serif" font-size="15">Jogos · filmes · series · mangas · favoritos locais</text>
  <text x="72" y="452" fill="#e879f9" font-family="system-ui,Segoe UI,sans-serif" font-size="14" font-weight="600">Spring Boot · front estatico responsivo</text>
</svg>
